<svg width="52" height="45" viewBox="0 0 52 45" fill="none" xmlns="http://www.w3.org/2000/svg">
<g clip-path="url(#clip0_40_412)">
<path d="M32.9334 42.9669H46.8001C47.7195 42.9669 48.6012 42.6587 49.2514 42.11C49.9015 41.5614 50.2667 40.8172 50.2667 40.0413V4.93471C50.2667 4.1588 49.9015 3.41468 49.2514 2.86603C48.6012 2.31738 47.7195 2.00916 46.8001 2.00916H32.9334C32.014 2.00916 31.1322 2.31738 30.4821 2.86603C29.832 3.41468 29.4667 4.1588 29.4667 4.93471V40.0413C29.4667 40.8172 29.832 41.5614 30.4821 42.11C31.1322 42.6587 32.014 42.9669 32.9334 42.9669ZM32.9334 42.9669H13.8667M22.5334 34.1902V42.9669M29.4667 16.6369H50.2667M34.6667 34.1902H45.0667M5.20007 10.7858H29.4667V34.1902H5.20007C4.28065 34.1902 3.39889 33.882 2.74876 33.3334C2.09864 32.7847 1.7334 32.0406 1.7334 31.2647V13.7114C1.7334 12.9355 2.09864 12.1913 2.74876 11.6427C3.39889 11.094 4.28065 10.7858 5.20007 10.7858Z" stroke="white" stroke-width="4"/>
</g>
<defs>
<clipPath id="clip0_40_412">
<rect width="52" height="43.8833" fill="white" transform="translate(0 0.546387)"/>
</clipPath>
</defs>
</svg>
