<svg width="56" height="51" viewBox="0 0 56 51" fill="none" xmlns="http://www.w3.org/2000/svg">
<path d="M0 50.5013V42.6583C0 41.1178 0.362253 39.6705 1.08676 38.3167C1.81126 36.9628 2.81279 35.9358 4.09132 35.2355C6.26484 34.0217 8.71537 32.9947 11.4429 32.1544C14.1705 31.314 17.175 30.8939 20.4566 30.8939C23.7382 30.8939 26.7428 31.314 29.4703 32.1544C32.1979 32.9947 34.6484 34.0217 36.8219 35.2355C38.1005 35.9358 39.102 36.9628 39.8265 38.3167C40.551 39.6705 40.9132 41.1178 40.9132 42.6583V50.5013H0ZM5.11415 44.8992H35.7991V42.6583C35.7991 42.1448 35.6815 41.678 35.4462 41.2578C35.211 40.8377 34.9024 40.5109 34.5205 40.2774C32.9863 39.4371 31.0148 38.5968 28.606 37.7565C26.1973 36.9162 23.4808 36.496 20.4566 36.496C17.4307 36.496 14.7134 36.9162 12.3047 37.7565C9.89589 38.5968 7.92524 39.4371 6.39269 40.2774C6.00913 40.5109 5.70058 40.8377 5.46703 41.2578C5.23349 41.678 5.11586 42.1448 5.11415 42.6583V44.8992ZM20.4566 28.0928C17.6438 28.0928 15.2359 26.9957 13.2329 24.8016C11.2298 22.6074 10.2283 19.9697 10.2283 16.8886H9.58904C9.20548 16.8886 8.89692 16.7597 8.66338 16.502C8.42983 16.2443 8.31221 15.9063 8.3105 15.488C8.3105 15.0679 8.42813 14.729 8.66338 14.4713C8.89863 14.2136 9.20718 14.0857 9.58904 14.0875H10.2283C10.2283 11.9867 10.6971 10.096 11.6347 8.41537C12.5723 6.73473 13.8082 5.40423 15.3425 4.42386V7.08487C15.3425 7.50503 15.4601 7.84395 15.6953 8.10165C15.9306 8.35935 16.2391 8.48726 16.621 8.4854C17.0046 8.4854 17.314 8.35655 17.5492 8.09885C17.7845 7.84115 17.9012 7.50316 17.8995 7.08487V3.30343C18.2831 3.16338 18.688 3.05788 19.1142 2.98692C19.5403 2.91595 19.9878 2.88141 20.4566 2.88328C20.9254 2.88328 21.3729 2.91876 21.7991 2.98972C22.2253 3.06068 22.6301 3.16525 23.0137 3.30343V7.08487C23.0137 7.50503 23.1313 7.84395 23.3666 8.10165C23.6018 8.35935 23.9104 8.48726 24.2922 8.4854C24.6758 8.4854 24.9852 8.35655 25.2205 8.09885C25.4557 7.84115 25.5725 7.50316 25.5708 7.08487V4.42386C27.105 5.40423 28.3409 6.73473 29.2785 8.41537C30.2161 10.096 30.6849 11.9867 30.6849 14.0875H31.3242C31.7078 14.0875 32.0172 14.2164 32.2524 14.4741C32.4877 14.7318 32.6044 15.0698 32.6027 15.488C32.6027 15.9082 32.4851 16.2471 32.2499 16.5048C32.0146 16.7625 31.7061 16.8904 31.3242 16.8886H30.6849C30.6849 19.9697 29.6834 22.6074 27.6804 24.8016C25.6773 26.9957 23.2694 28.0928 20.4566 28.0928ZM20.4566 22.4907C21.863 22.4907 23.0674 21.9417 24.0698 20.8437C25.0721 19.7457 25.5725 18.4273 25.5708 16.8886H15.3425C15.3425 18.4292 15.8437 19.7485 16.846 20.8465C17.8484 21.9445 19.0519 22.4926 20.4566 22.4907ZM39.6347 33.6949L39.2511 31.5942C38.9954 31.5008 38.7508 31.3953 38.5173 31.2776C38.2837 31.16 38.0595 30.9854 37.8447 30.7538L36.0548 31.4541L34.7763 28.9331L36.1826 27.5326V25.852L34.7763 24.4514L36.0548 21.9305L37.8447 22.6308C38.0152 22.444 38.2283 22.2806 38.484 22.1406C38.7397 22.0005 38.9954 21.8838 39.2511 21.7904L39.6347 19.6896H42.1918L42.5753 21.7904C42.8311 21.8838 43.0868 22.0005 43.3425 22.1406C43.5982 22.2806 43.8113 22.444 43.9817 22.6308L45.7717 21.9305L47.0502 24.4514L45.6438 25.852V27.5326L47.0502 28.9331L45.7717 31.4541L43.9817 30.7538C43.7686 30.9873 43.5445 31.1628 43.3092 31.2804C43.074 31.3981 42.8293 31.5026 42.5753 31.5942L42.1918 33.6949H39.6347ZM40.9132 28.7931C41.4247 28.7931 41.8721 28.583 42.2557 28.1628C42.6393 27.7427 42.831 27.2525 42.831 26.6923C42.831 26.1321 42.6393 25.6419 42.2557 25.2217C41.8721 24.8016 41.4247 24.5915 40.9132 24.5915C40.4018 24.5915 39.9543 24.8016 39.5708 25.2217C39.1872 25.6419 38.9954 26.1321 38.9954 26.6923C38.9954 27.2525 39.1872 27.7427 39.5708 28.1628C39.9543 28.583 40.4018 28.7931 40.9132 28.7931ZM45.516 19.6896L45.0046 16.7485C44.621 16.6085 44.2698 16.4329 43.951 16.2219C43.6323 16.0109 43.3442 15.7663 43.0868 15.488L40.4018 16.4684L38.6119 13.1071L40.7854 11.0064C40.7001 10.7729 40.6575 10.5862 40.6575 10.4461V9.32572C40.6575 9.18566 40.7001 8.99892 40.7854 8.7655L38.6119 6.66471L40.4018 3.30343L43.0868 4.28381C43.3425 4.0037 43.6306 3.75814 43.951 3.54713C44.2715 3.33611 44.6227 3.16151 45.0046 3.02333L45.516 0.0822144H49.0959L49.6073 3.02333C49.9909 3.16338 50.3429 3.33891 50.6634 3.54993C50.9839 3.76094 51.2711 4.00557 51.5251 4.28381L54.21 3.30343L56 6.66471L53.8265 8.7655C53.9117 8.99892 53.9543 9.18566 53.9543 9.32572V10.4461C53.9543 10.5862 53.9117 10.7729 53.8265 11.0064L56 13.1071L54.21 16.4684L51.5251 15.488C51.2694 15.7682 50.9822 16.0137 50.6634 16.2247C50.3446 16.4357 49.9926 16.6103 49.6073 16.7485L49.0959 19.6896H45.516ZM47.3059 13.3873C48.2009 13.3873 48.9578 13.0483 49.5766 12.3705C50.1954 11.6926 50.504 10.8644 50.5023 9.88593C50.5023 8.90556 50.1929 8.07644 49.5741 7.39859C48.9552 6.72073 48.1992 6.38273 47.3059 6.3846C46.411 6.3846 45.6541 6.72353 45.0353 7.40139C44.4164 8.07924 44.1079 8.90742 44.1096 9.88593C44.1096 10.8663 44.419 11.6954 45.0378 12.3733C45.6566 13.0511 46.4127 13.3891 47.3059 13.3873Z" fill="white"/>
</svg>
