<svg width="57" height="58" viewBox="0 0 57 58" fill="none" xmlns="http://www.w3.org/2000/svg">
<g clip-path="url(#clip0_40_434)">
<path d="M33.4862 2.28285L31.4415 0.0106201L29.3968 2.28285L29.3866 2.2935L29.3559 2.32757L29.2307 2.46599L28.7451 2.99625C26.3269 5.61927 23.8142 8.18087 21.2105 10.6775C18.9996 12.7815 16.6866 14.8344 14.647 16.3421C13.6247 17.1003 12.7301 17.6774 12.0017 18.0522C11.373 18.3737 11.0561 18.4461 10.9896 18.4632V18.4589L10.9794 16.3294L5.86768 16.3464L5.8779 18.4759C5.88046 19.3384 6.14882 20.4096 7.05103 21.3019C8.01715 22.2602 9.42286 22.7287 10.9947 22.7287V41.8946H5.88301V46.1537H57V41.8946H51.8883V22.7287C53.4576 22.7287 54.8659 22.2602 55.832 21.3019C56.7342 20.4074 57 19.3342 57 18.4696V16.3379H51.8883V18.4589C51.5312 18.3629 51.1921 18.2253 50.8813 18.05C49.9431 17.5433 49.0573 16.972 48.2335 16.3421C46.1964 14.8302 43.8809 12.7794 41.67 10.6754C38.8861 8.01447 36.2111 5.27571 33.6498 2.46386L33.5245 2.32544L33.4939 2.29137L33.4862 2.28285ZM43.4642 18.4674H19.4162C21.3803 16.8736 23.2622 15.2111 25.057 13.4843C27.2518 11.3849 29.3807 9.23829 31.4415 7.04665L31.9118 7.54497C33.825 9.56318 35.7962 11.5428 37.8235 13.4822C39.6182 15.2097 41.5001 16.8729 43.4642 18.4674ZM16.1064 22.7265H46.7766V41.8925H39.1091V35.5038C39.1091 33.8094 38.3012 32.1845 36.8633 30.9864C35.4254 29.7883 33.4751 29.1152 31.4415 29.1152C29.408 29.1152 27.4577 29.7883 26.0197 30.9864C24.5818 32.1845 23.774 33.8094 23.774 35.5038V41.8925H16.1064V22.7265ZM33.9974 41.8925H28.8857V35.5038C28.8857 34.939 29.1549 34.3974 29.6343 33.998C30.1136 33.5986 30.7637 33.3743 31.4415 33.3743C32.1194 33.3743 32.7695 33.5986 33.2488 33.998C33.7281 34.3974 33.9974 34.939 33.9974 35.5038V41.8925Z" fill="white"/>
</g>
<defs>
<clipPath id="clip0_40_434">
<rect width="57" height="57.8886" fill="white" transform="translate(0 0.0106201)"/>
</clipPath>
</defs>
</svg>
