<svg width="36" height="33" viewBox="0 0 36 33" fill="none" xmlns="http://www.w3.org/2000/svg">
<path d="M19.5 12.375H27.75L19.5 4.8125V12.375ZM9 2.75H21L30 11V27.5C30 28.2293 29.6839 28.9288 29.1213 29.4445C28.5587 29.9603 27.7956 30.25 27 30.25H9C8.20435 30.25 7.44129 29.9603 6.87868 29.4445C6.31607 28.9288 6 28.2293 6 27.5V5.5C6 3.97375 7.335 2.75 9 2.75ZM21 27.5V26.125C21 24.2962 16.995 23.375 15 23.375C13.005 23.375 9 24.2962 9 26.125V27.5H21ZM15 16.5C14.2044 16.5 13.4413 16.7897 12.8787 17.3055C12.3161 17.8212 12 18.5207 12 19.25C12 19.9793 12.3161 20.6788 12.8787 21.1945C13.4413 21.7103 14.2044 22 15 22C15.7956 22 16.5587 21.7103 17.1213 21.1945C17.6839 20.6788 18 19.9793 18 19.25C18 18.5207 17.6839 17.8212 17.1213 17.3055C16.5587 16.7897 15.7956 16.5 15 16.5Z" fill="white"/>
</svg>
