<svg width="27" height="26" viewBox="0 0 27 26" fill="none" xmlns="http://www.w3.org/2000/svg">
<path d="M19.2967 16.3522H18.0772L17.6449 15.9508C19.2101 14.2027 20.0703 11.9708 20.0686 9.66267C20.0686 7.75157 19.4801 5.8834 18.3775 4.29438C17.2749 2.70536 15.7078 1.46687 13.8743 0.735531C12.0407 0.00418668 10.0232 -0.187166 8.07671 0.18567C6.13025 0.558506 4.34231 1.47878 2.93898 2.83013C1.53566 4.18148 0.579987 5.9032 0.192811 7.77757C-0.194365 9.65195 0.00434771 11.5948 0.76382 13.3604C1.52329 15.126 2.80942 16.6351 4.45955 17.6969C6.10968 18.7586 8.04971 19.3253 10.0343 19.3253C12.5197 19.3253 14.8045 18.4483 16.5643 16.9914L16.9811 17.4077V18.582L24.6998 26L27 23.785L19.2967 16.3522ZM10.0343 16.3522C6.1904 16.3522 3.08748 13.3642 3.08748 9.66267C3.08748 5.96112 6.1904 2.97313 10.0343 2.97313C13.8782 2.97313 16.9811 5.96112 16.9811 9.66267C16.9811 13.3642 13.8782 16.3522 10.0343 16.3522Z" fill="white"/>
</svg>
